<?xml version="1.0" standalone="no"?>
<!DOCTYPE svg PUBLIC "-//W3C//DTD SVG 20010904//EN"
 "http://www.w3.org/TR/2001/REC-SVG-20010904/DTD/svg10.dtd">
<svg version="1.0" xmlns="http://www.w3.org/2000/svg"
 width="234.000000pt" height="234.000000pt" viewBox="0 0 234.000000 234.000000"
 preserveAspectRatio="xMidYMid meet">
<metadata>
Created by potrace 1.14, written by Peter Selinger 2001-2017
</metadata>
<g transform="translate(0.000000,234.000000) scale(0.100000,-0.100000)"
fill="#000000" stroke="none">
<path d="M1497 2294 c-1 -1 -30 -5 -63 -8 -72 -7 -227 -55 -295 -93 -120 -65
-208 -182 -310 -413 -74 -168 -121 -256 -194 -360 -69 -97 -99 -124 -160 -145
-113 -38 -221 -23 -373 51 -52 25 -96 44 -98 42 -6 -7 62 -154 94 -200 57 -83
119 -128 297 -219 103 -52 125 -66 125 -79 0 -5 -28 -21 -62 -38 -54 -25 -188
-116 -188 -128 0 -2 55 -3 123 -1 214 3 302 -22 517 -150 149 -89 236 -134
291 -152 l36 -12 -1 -59 c-1 -33 -6 -64 -11 -69 -6 -5 -30 -12 -55 -14 -25 -3
-79 -13 -120 -22 -41 -9 -82 -18 -90 -20 -92 -19 -150 -43 -150 -61 0 -26 67
-57 150 -70 19 -3 46 -7 60 -10 42 -7 240 -18 325 -18 90 0 307 12 345 18 14
3 54 10 90 16 199 34 256 86 135 123 -33 10 -114 27 -180 38 -66 12 -121 22
-122 22 0 1 -4 23 -8 48 l-7 47 79 17 c237 52 453 237 586 502 96 190 96 492
0 750 -14 37 -27 75 -30 83 -2 9 12 29 36 50 23 18 41 37 41 40 0 4 -31 12
-68 19 l-69 12 -59 92 c-86 135 -209 253 -315 305 -46 22 -106 45 -134 51 -45
10 -162 21 -168 15z m-53 -1938 l71 -3 5 -45 6 -45 -98 0 -98 1 0 53 c0 51 1
54 21 48 12 -4 54 -8 93 -9z"/>
</g>
</svg>
