<svg height="500" viewBox="0 0 500 500" width="500" xmlns="http://www.w3.org/2000/svg" xmlns:xlink="http://www.w3.org/1999/xlink"><linearGradient id="a" gradientUnits="userSpaceOnUse" x1="25.099405" x2="33.680433" y1="97.558625" y2="-97.558625"><stop offset="0" stop-color="#dcedf1"/><stop offset="1" stop-color="#32596c"/></linearGradient><linearGradient id="b" gradientUnits="userSpaceOnUse" x1="0" x2="0" y1="21.576065" y2="-13.855421"><stop offset="0" stop-color="#fff"/><stop offset="1" stop-color="#32596c"/></linearGradient><path d="m-97.32889 26.16454c-15.55286-11.85518-19.50719-31.70913-19.50719-31.70913s23.37398 16.02331 42.00542 11.95827c7.99015-1.7433 11.90286-3.48278 15.47296-7.98499 9.8682-12.44469 17.92268-26.22529 23.92312-40.93061 7.4917-18.35995 16.73909-38.40261 37.50094-46.95161 28.79404-11.85637 67.07317-16.59892 97.56098 37.94038 1.00692 1.80126 15.85736 3.04235 15.06359 3.67736-1.60392 1.28313-8.31331 7.63322-9.02059 8.30329 21.65993 48.12841 5.13587 81.17653 5.13587 81.17653s-19.98645 48.78049-66.39566 54.5393c-38.01343 4.71699-55.48314-10.52796-79.08173-24.24567-13.93404-8.09977-30.09527-11.52573-46.11722-9.7762l-9.6249.48529s9.14634-10.1626 24.39024-15.92141c7.49793-2.83255-16.25099-9.08523-31.30582-20.56079z" fill="url(#a)" transform="translate(250 234.572087)"/><path d="m-6.44299-14.95117c-.30399 2.41756-.11671 10.35322-.11671 10.35322l6.36983-.03577h12.87073l-.51178-9.41188 8.23103-.6278.37051 4.25453.74608 5.95391s37.31715 4.77384 37.4027 9.67526c.10476 6.00161-26.20615 11.33321-58.72972 11.90091-32.52356.5677-59.00452-3.84242-59.10927-9.84402-.08659-4.96069 42.65255-11.42119 42.65255-11.42119l.52411-13.00639z" fill="url(#b)" transform="translate(272.632141 345.326135)"/><path d="m0-8.13008c4.4878 0 8.13008 3.64228 8.13008 8.13008s-3.64228 8.13008-8.13008 8.13008-8.13008-3.64228-8.13008-8.13008 3.64228-8.13008 8.13008-8.13008z" fill="#2c414e" transform="matrix(.85067524 -.29291097 .42605227 1.23734565 324.128609 188.4288)"/></svg>